<?xml version="1.0" encoding="utf-8"?>
<!-- Generator: Adobe Illustrator 23.0.1, SVG Export Plug-In . SVG Version: 6.00 Build 0)  -->
<svg version="1.1" id="Capa_1" xmlns="http://www.w3.org/2000/svg" xmlns:xlink="http://www.w3.org/1999/xlink" x="0px" y="0px"
	 width="235px" height="76px" viewBox="0 0 235 76" style="enable-background:new 0 0 235 76;" xml:space="preserve">
<style type="text/css">
	.st0{fill-rule:evenodd;clip-rule:evenodd;fill:#5493E7;}
	.st1{filter:url(#Adobe_OpacityMaskFilter);}
	.st2{fill-rule:evenodd;clip-rule:evenodd;fill:#FFFFFF;}
	.st3{mask:url(#b_1_);fill-rule:evenodd;clip-rule:evenodd;fill:#5493E7;}
	.st4{filter:url(#Adobe_OpacityMaskFilter_1_);}
	.st5{mask:url(#d_1_);fill-rule:evenodd;clip-rule:evenodd;fill:#5493E7;}
</style>
<g>
	<path class="st0" d="M204.5,18h-16.6c-0.7,0-1.5,0.6-1.5,1.5v29.1l-16.8-29.2c-0.4-0.8-1.3-1.3-2.2-1.3h-16.8
		c-0.8,0-1.5,0.7-1.5,1.5c0,0,0,0,0,0v55c0,0.8,0.9,1.5,1.7,1.5h16.6c0.8,0,1.5-0.7,1.5-1.5c0,0,0,0,0,0v-28l16.8,28.2
		c0.6,0.8,1.3,1.3,2.2,1.3h16.6c0.8,0,1.5-0.7,1.5-1.5c0,0,0,0,0,0V19.5C206,18.8,205.4,18,204.5,18"/>
	<g transform="translate(213 18)">
		<defs>
			<filter id="Adobe_OpacityMaskFilter" filterUnits="userSpaceOnUse" x="0.7" y="0.5" width="21.2" height="57.5">
				<feColorMatrix  type="matrix" values="1 0 0 0 0  0 1 0 0 0  0 0 1 0 0  0 0 0 1 0"/>
			</filter>
		</defs>
		<mask maskUnits="userSpaceOnUse" x="0.7" y="0.5" width="21.2" height="57.5" id="b_1_">
			<g class="st1">
				<path id="a_1_" class="st2" d="M0.7,0.5h21.2V58H0.7V0.5z"/>
			</g>
		</mask>
		<path class="st3" d="M11.3,3.2c-3.1,0-6.7-0.7-10.6-2.7v56c0,0.8,0.6,1.5,1.5,1.5h18.1c0.2,0,0.4,0,0.5-0.1l0,0
			c0.1,0,0.2-0.1,0.2-0.1l0,0c0.1,0,0.1-0.1,0.2-0.1c0,0,0.1-0.1,0.1-0.1c0,0,0.1-0.1,0.1-0.1c0-0.1,0.1-0.1,0.1-0.2l0,0
			c0-0.1,0.1-0.1,0.1-0.2l0,0c0.1-0.2,0.1-0.4,0.1-0.5v-56C17.9,2.5,14.3,3.1,11.3,3.2"/>
	</g>
	<path class="st0" d="M235,10.4C235,4.2,230.6,0,224,0c-6.6,0-11,3.9-11,10.4C213,17.8,234.7,17.9,235,10.4 M112.5,58.3
		c-5.9,0-10.7-5-10.7-11.3c0-6.2,4.8-11.3,10.7-11.3c5.9,0,10.7,5,10.7,11.3C123.2,53.2,118.4,58.3,112.5,58.3 M112.5,18
		C95.1,18,81,31,81,47c0,16,14.1,29,31.5,29S144,63,144,47C144,31,129.9,18,112.5,18"/>
	<g transform="translate(0 18)">
		<defs>
			<filter id="Adobe_OpacityMaskFilter_1_" filterUnits="userSpaceOnUse" x="0" y="0.3" width="77.3" height="57.7">
				<feColorMatrix  type="matrix" values="1 0 0 0 0  0 1 0 0 0  0 0 1 0 0  0 0 0 1 0"/>
			</filter>
		</defs>
		<mask maskUnits="userSpaceOnUse" x="0" y="0.3" width="77.3" height="57.7" id="d_1_">
			<g class="st4">
				<path id="c_1_" class="st2" d="M0,0.3h77.3V58H0V0.3z"/>
			</g>
		</mask>
		<path class="st5" d="M68.2,1.9c-0.2-0.8-0.9-1.5-1.9-1.5H48.3c-0.9,0-1.7,0.8-1.9,1.5c0,0-5.7,22.6-7.3,28.4
			c-0.2,0.8-0.4,1.3-0.4,1.3c-0.2,0-7.7-29.8-7.7-29.8c-0.2-0.8-0.9-1.5-1.9-1.5H11c-0.9,0-1.7,0.8-1.9,1.5L0,56.5
			C-0.2,57.2,0.4,58,1.3,58h16.9c0.9,0,1.7-0.8,1.7-1.5l2.7-29.1l8.8,29.1c0.4,0.8,1.1,1.5,2,1.5h2.9v0h7.4c0.9,0,1.7-0.8,2-1.5
			l8.8-29.1l2.7,29.1c0,0.8,0.7,1.5,1.7,1.5H76c0.9,0,1.5-0.8,1.3-1.5C77.3,56.5,68.2,1.9,68.2,1.9z"/>
	</g>
</g>
</svg>
